<svg width="24" height="18" viewBox="0 0 24 18" fill="none" xmlns="http://www.w3.org/2000/svg">
<path fill-rule="evenodd" clip-rule="evenodd" d="M1.21928 0C0.525774 0 0 0.582304 0 1.24817V6.09703C0 6.7629 0.525774 7.3452 1.21928 7.3452C2.08556 7.3452 2.81373 8.07082 2.81373 9.03186C2.81373 9.99291 2.08556 10.7185 1.21928 10.7185C0.525774 10.7185 0 11.3008 0 11.9667V16.8156C0 17.4588 0.566652 17.9999 1.21928 17.9999H22.781C23.4745 17.9999 24.0003 17.4176 24.0003 16.7518V11.9029C24.0003 11.6408 23.9089 11.2302 23.5826 10.9749C23.4364 10.8605 23.146 10.6547 22.7504 10.6547H22.6281C21.7618 10.6547 21.0336 9.92911 21.0336 8.96806C21.0336 8.00701 21.7632 7.2814 22.6295 7.2814H22.7504C23.0407 7.2814 23.3552 7.171 23.5826 6.99309L23.6168 6.96631L23.6469 6.93493C23.8875 6.68396 24.0003 6.36849 24.0003 6.03323V1.24817C24.0003 0.582304 23.4745 0 22.781 0H1.21928ZM2.43857 5.02323V2.49635H15.3906C15.4545 3.10547 15.9557 3.61286 16.603 3.61286C17.2504 3.61286 17.7516 3.10547 17.8154 2.49635H21.5617V5.00313C19.8651 5.50392 18.6257 7.10945 18.6257 9.03186C18.6257 10.9543 19.8651 12.5598 21.5617 13.0606V15.5674H17.846C17.7822 14.9583 17.281 14.4509 16.6336 14.4509C15.9863 14.4509 15.4851 14.9583 15.4212 15.5674H2.43857V12.9839C4.07632 12.4529 5.2523 10.8524 5.2523 8.99996C5.2523 7.1364 4.06703 5.57115 2.43857 5.02323ZM16.6333 9.28322C15.9398 9.28322 15.4141 9.86553 15.4141 10.5314V12.6368C15.4141 13.3027 15.9398 13.885 16.6333 13.885C17.3268 13.885 17.8526 13.3027 17.8526 12.6368V10.5314C17.8526 9.86553 17.3268 9.28322 16.6333 9.28322ZM16.6333 4.14686C15.9398 4.14686 15.4141 4.72916 15.4141 5.39503V7.50045C15.4141 8.16632 15.9398 8.74863 16.6333 8.74863C17.3268 8.74863 17.8526 8.16632 17.8526 7.50045V5.39503C17.8526 4.72916 17.3268 4.14686 16.6333 4.14686Z" fill="white" fill-opacity="0.7"/>
</svg>
