<svg width="17" height="21" viewBox="0 0 17 21" fill="none" xmlns="http://www.w3.org/2000/svg">
<path d="M14.7487 2.18615V18.807L8.49889 12.8721L2.24909 18.807V2.18615H14.7487ZM14.7487 1H2.24909C1.91782 1 1.60011 1.12497 1.36586 1.34742C1.13162 1.56986 1.00002 1.87157 1.00002 2.18615V18.807C0.9986 19.0424 1.07093 19.2728 1.2078 19.469C1.34467 19.6652 1.5399 19.8182 1.76866 19.9088C1.99741 19.9993 2.24935 20.0231 2.49242 19.9773C2.73549 19.9314 2.9587 19.8179 3.13366 19.6513L8.49889 14.55L13.8663 19.6471C14.0413 19.8137 14.2645 19.9272 14.5076 19.973C14.7506 20.0189 15.0026 19.995 15.2313 19.9045C15.4601 19.814 15.6553 19.6609 15.7922 19.4648C15.9291 19.2686 16.0014 19.0382 16 18.8028V2.18615C16 2.03021 15.9676 1.87579 15.9047 1.73174C15.8418 1.5877 15.7496 1.45684 15.6333 1.34667C15.5171 1.2365 15.3792 1.14917 15.2274 1.08969C15.0756 1.0302 14.9129 0.999724 14.7487 1Z" fill="#FF8300" stroke="#FF8300" stroke-width="0.5"/>
</svg>
