<svg width="19" height="15" viewBox="0 0 19 15" fill="none" xmlns="http://www.w3.org/2000/svg">
<path fill-rule="evenodd" clip-rule="evenodd" d="M4 0.904762C4 0.405076 4.44772 0 5 0C5.55228 0 6 0.405076 6 0.904762V2H13V0.904762C13 0.405076 13.4477 0 14 0C14.5523 0 15 0.405076 15 0.904762V2H16.2857C17.7848 2 19 3.16406 19 4.6V12.4C19 13.8359 17.7848 15 16.2857 15H2.71429C1.21523 15 0 13.8359 0 12.4V4.6C0 3.16406 1.21523 2 2.71429 2H4V0.904762ZM13 3.73333V4.52381C13 5.0235 13.4477 5.42857 14 5.42857C14.5523 5.42857 15 5.0235 15 4.52381V3.73333H16.2857C16.7854 3.73333 17.1905 4.12135 17.1905 4.6V12.4C17.1905 12.8786 16.7854 13.2667 16.2857 13.2667H2.71429C2.2146 13.2667 1.80952 12.8786 1.80952 12.4V4.6C1.80952 4.12135 2.2146 3.73333 2.71429 3.73333H4V4.52381C4 5.0235 4.44772 5.42857 5 5.42857C5.55228 5.42857 6 5.0235 6 4.52381V3.73333H13Z" fill="white" fill-opacity="0.5"/>
</svg>
