<svg width="19" height="18" viewBox="0 0 19 18" fill="none" xmlns="http://www.w3.org/2000/svg">
<g opacity="0.5">
<path d="M17.8321 0.410263C17.2822 0.20777 16.6637 0.309017 16.217 0.747751L16.1139 0.882746C16.0108 0.983992 15.8733 1.11899 15.6671 1.28773C15.2891 1.59147 14.7049 2.0302 13.9146 2.50269C12.7462 3.21141 10.9249 4.05513 8.75998 4.22388H3.9834C1.95592 4.19013 0.340815 5.81007 0.306451 7.80125C0.306451 9.79243 1.95592 11.4124 3.9834 11.4124L8.27889 17.3184C8.41635 17.5209 8.65689 17.6559 8.89744 17.6896C8.9318 17.6896 9.00053 17.6896 9.0349 17.6896C9.24108 17.6896 9.44726 17.6221 9.61908 17.4872L11.5778 16.0022C11.9902 15.6985 12.0589 15.1247 11.7496 14.7198L9.37854 11.4461C11.2686 11.7161 12.8493 12.4586 13.8802 13.0998C14.6706 13.5723 15.2548 14.011 15.6328 14.3148C15.839 14.4835 15.9764 14.6185 16.0795 14.686L16.217 14.7872C16.4919 15.0572 16.8699 15.226 17.2479 15.226C17.4541 15.226 17.6259 15.1922 17.7977 15.1247C18.3475 14.8885 18.6912 14.3823 18.6912 13.8085V1.76021C18.7255 1.18648 18.3819 0.646504 17.8321 0.410263ZM10.65 15.226L9.10362 16.4072L5.46104 11.4124H7.86652L10.65 15.226ZM8.75998 10.1974C8.72562 10.1974 8.69126 10.1974 8.65689 10.1974H3.9834C2.6432 10.1974 1.50919 9.11745 1.50919 7.7675C1.50919 6.4513 2.60884 5.33759 3.9834 5.33759H8.62253C8.65689 5.33759 8.69126 5.33759 8.72562 5.33759C9.894 5.27009 10.9936 5.0001 11.9558 4.66261V10.8724C11.028 10.5687 9.92836 10.2987 8.75998 10.1974ZM17.5228 13.8423C17.5228 13.9435 17.4541 14.0448 17.351 14.0785C17.2479 14.1123 17.1448 14.0785 17.0761 14.0448C17.0761 14.011 17.0417 14.011 17.0417 14.011C17.0073 13.9773 16.973 13.9435 16.9042 13.876C16.8012 13.7748 16.6293 13.6398 16.3888 13.4373C15.9764 13.0998 15.3235 12.6273 14.4988 12.1211C14.1208 11.8849 13.674 11.6486 13.1586 11.4124V4.19013C13.674 3.95389 14.1208 3.71765 14.4988 3.4814C15.3235 2.97517 15.9764 2.50269 16.3888 2.1652C16.595 1.99646 16.7668 1.82771 16.9042 1.72647L17.0761 1.55772C17.1448 1.49022 17.2479 1.45648 17.351 1.49022C17.4541 1.52397 17.5228 1.62522 17.5228 1.72647V13.8423Z" fill="white"/>
<path fill-rule="evenodd" clip-rule="evenodd" d="M16.0036 0.524967C16.5411 -0.00289096 17.2854 -0.121278 17.9368 0.11861L17.9519 0.124179C18.6098 0.406832 19.0359 1.05905 18.9976 1.76912V13.8085C18.9976 14.5154 18.5725 15.129 17.9174 15.4104L17.9086 15.4142C17.7005 15.496 17.491 15.5363 17.2479 15.5363C16.7904 15.5363 16.3451 15.3374 16.02 15.0259L15.9054 14.9415C15.836 14.895 15.7633 14.8329 15.6956 14.7742C15.6816 14.7621 15.6674 14.7497 15.653 14.7372C15.5897 14.6821 15.5212 14.6225 15.4412 14.557C15.0715 14.26 14.4993 13.8303 13.7244 13.3671L13.7198 13.3643C12.8535 12.8254 11.5884 12.2134 10.0777 11.8867L11.9946 14.5333C12.4021 15.0706 12.3146 15.8418 11.7599 16.2519L9.8047 17.7341C9.57803 17.9114 9.30622 18 9.0349 18H8.87631L8.85539 17.9971C8.5431 17.9533 8.22244 17.7799 8.02944 17.4987L3.82631 11.7197C1.71031 11.6383 0 9.92054 0 7.80126V7.79583C0.0372885 5.63519 1.78956 3.87837 3.98586 3.91354H8.74812C10.8453 3.74756 12.616 2.92867 13.7571 2.23645L13.7588 2.23544C14.5337 1.77222 15.1058 1.34253 15.4756 1.0455C15.6601 0.894374 15.7858 0.772504 15.8849 0.675355L15.9879 0.540382L16.0036 0.524967ZM16.4453 0.956064L16.3429 1.09013L16.3272 1.10554C16.2226 1.20824 16.0767 1.35156 15.8598 1.52912L15.8576 1.53086C15.4714 1.84117 14.8759 2.28835 14.0712 2.76944C12.8777 3.49329 11.0106 4.35973 8.7835 4.53331L8.77176 4.53423H3.97836C2.12184 4.50333 0.645748 5.98433 0.612904 7.80396C0.612903 7.80306 0.612903 7.80216 0.612903 7.80126L0.306451 7.80125L0.612856 7.80668C0.612871 7.80577 0.612887 7.80487 0.612904 7.80396C0.614402 9.61361 2.11717 11.102 3.9834 11.102H4.13828L8.53156 17.1425C8.61073 17.2591 8.76056 17.3516 8.92073 17.3793H8.89825L8.89744 17.6896L8.93949 17.3822C8.93323 17.3814 8.92697 17.3804 8.92073 17.3793H9.03429C9.17445 17.3793 9.31471 17.3335 9.43124 17.242L9.43541 17.2387L11.3976 15.7512C11.6648 15.5543 11.7149 15.1815 11.5072 14.9096L11.5025 14.9034L8.70141 11.036L9.42134 11.1388C11.3615 11.416 12.9811 12.1767 14.0383 12.8339C14.0375 12.8335 14.0368 12.833 14.036 12.8326L13.8802 13.0998L14.0406 12.8354C14.0398 12.8349 14.0391 12.8344 14.0383 12.8339C14.8422 13.3147 15.4373 13.7615 15.8233 14.0717L15.8254 14.0734C15.9137 14.1457 15.9907 14.2127 16.0545 14.2682C16.0683 14.2802 16.0815 14.2917 16.094 14.3026C16.1698 14.3682 16.2145 14.4048 16.2459 14.4254L16.26 14.4346L16.4147 14.5492L16.4303 14.5645C16.6537 14.7839 16.9571 14.9156 17.2479 14.9156C17.4153 14.9156 17.5484 14.8892 17.6824 14.8371C17.6809 14.8378 17.6795 14.8384 17.678 14.839L17.7977 15.1247L17.6869 14.8354C17.6854 14.836 17.6839 14.8366 17.6824 14.8371C18.1243 14.6454 18.3847 14.2477 18.3847 13.8085V1.75082L18.3853 1.74143C18.4111 1.3103 18.154 0.889219 17.7197 0.699149C17.7223 0.700067 17.7248 0.700994 17.7273 0.701928L17.8321 0.410263L17.7124 0.695965C17.7148 0.697019 17.7173 0.69808 17.7197 0.699149C17.2797 0.540056 16.798 0.620574 16.4453 0.956064ZM17.2163 1.85227L17.102 1.96454L17.0845 1.97745C17.0287 2.01858 16.9616 2.07674 16.8738 2.15434C16.8653 2.16181 16.8567 2.16942 16.848 2.17716C16.7695 2.24664 16.6791 2.32659 16.5814 2.40658C16.1569 2.754 15.4928 3.23411 14.6587 3.74616C14.3128 3.96227 13.9145 4.17645 13.465 4.38903V11.2135C13.9145 11.4261 14.3128 11.6402 14.6587 11.8563C15.4928 12.3684 16.1569 12.8485 16.5814 13.1959L16.5847 13.1986C16.6514 13.2548 16.7153 13.3077 16.7751 13.3572C16.9176 13.4753 17.0371 13.5742 17.1176 13.6532L17.2129 13.7468C17.214 13.7475 17.2152 13.7482 17.2163 13.7489V1.85227ZM16.8627 1.33494C17.0024 1.19779 17.221 1.12154 17.4452 1.19493C17.6767 1.27069 17.8292 1.49258 17.8292 1.72647V13.8423C17.8292 14.0762 17.6767 14.2981 17.4452 14.3738C17.2287 14.4447 17.0352 14.3696 16.9424 14.324L16.937 14.3214H16.9175L16.8981 14.3023L16.7696 14.2392V14.1761L16.6909 14.0988C16.6297 14.0388 16.5425 13.9665 16.4158 13.8616C16.3524 13.8092 16.2793 13.7487 16.1945 13.6774C15.7944 13.35 15.1537 12.886 14.3399 12.3865L14.3378 12.3852C13.9735 12.1575 13.5388 11.9273 13.0322 11.6951L12.8521 11.6126V3.98994L13.0322 3.90739C13.5388 3.67521 13.9735 3.44502 14.3378 3.21731L14.3399 3.216C15.1548 2.71583 15.7961 2.25124 16.1962 1.92383C16.2842 1.85178 16.3657 1.77969 16.4451 1.70943C16.4537 1.70184 16.4622 1.69426 16.4708 1.68671C16.5485 1.61798 16.6293 1.54705 16.7056 1.4892L16.8627 1.33494ZM12.2623 4.2267V11.2989L11.8616 11.1677C10.9531 10.8703 9.88153 10.6074 8.74682 10.5078H3.9834C2.4857 10.5078 1.20274 9.30052 1.20274 7.76751C1.20274 6.27376 2.44572 5.02725 3.9834 5.02725H8.71682C9.84716 4.96093 10.9154 4.69911 11.8555 4.36936L12.2623 4.2267ZM11.6494 5.09176C10.7674 5.37164 9.78335 5.58734 8.74307 5.64744L8.73435 5.64794H3.9834C2.77195 5.64794 1.81564 6.62885 1.81564 7.76751C1.81564 8.9344 2.8007 9.88707 3.9834 9.88707H8.77307L8.78611 9.8882C9.81812 9.97763 10.795 10.1952 11.6494 10.4514V5.09176ZM4.85375 11.102H8.02109L11.0768 15.2887L9.04102 16.8437L4.85375 11.102ZM6.06834 11.7227L9.16623 15.9706L10.2232 15.1633L7.71196 11.7227H6.06834Z" fill="white"/>
</g>
</svg>
