<svg width="44" height="48" viewBox="0 0 44 48" fill="none" xmlns="http://www.w3.org/2000/svg">
<circle cx="22" cy="22" r="21" fill="#FF8300" stroke="white" stroke-width="2"/>
<path d="M28.4655 23.8699C28.6537 24.0816 28.9431 24.1675 29.213 24.098C29.1981 24.4941 29.1813 24.7205 29.1679 24.8529C29.1588 24.9427 29.1512 24.9888 29.1462 25.0185C29.146 25.0199 29.1456 25.022 29.1451 25.0248C29.1402 25.0521 29.1243 25.1404 29.1243 25.2375C29.1243 26.421 27.9196 27.5774 26.3673 27.5774C24.8482 27.5774 23.7233 26.4507 23.7233 25.2375C23.7233 24.0256 24.8465 22.8997 26.363 22.8976C26.7564 22.9027 27.1454 22.9906 27.5062 23.1567C27.8683 23.3234 28.1951 23.5657 28.4655 23.8699ZM29.1347 12.7834C29.1574 13.8466 29.1762 14.8171 29.1915 15.703C29.1045 15.6833 29.0137 15.6791 28.9233 15.6916L18.8027 17.0901V14.1556L29.1347 12.7834ZM18.151 27.7877V28.9101C18.151 30.0936 16.9464 31.25 15.394 31.25C13.8749 31.25 12.75 30.1233 12.75 28.9101C12.75 27.6981 13.8732 26.5723 15.3897 26.5702C15.7832 26.5752 16.1721 26.6631 16.5329 26.8292C16.8951 26.996 17.2218 27.2383 17.4922 27.5424C17.6599 27.7311 17.908 27.8199 18.151 27.7877ZM18.416 14.2067L18.4269 14.2054C18.4233 14.2059 18.4197 14.2063 18.416 14.2067Z" stroke="white" stroke-width="1.5" stroke-miterlimit="10" stroke-linecap="round" stroke-linejoin="round"/>
</svg>
