<svg width="112" height="16" viewBox="0 0 112 16" fill="none" xmlns="http://www.w3.org/2000/svg">
<path d="M42.2279 5.31952C42.2279 8.16487 40.3972 10.3917 37.1019 10.3917H33.7253V14.6391C33.7253 15.3401 33.3591 15.7112 32.6675 15.7112H31.2843C30.5927 15.7112 30.1859 15.3401 30.1859 14.6391V1.11336C30.1859 0.412331 30.5927 0.0411987 31.2843 0.0411987H37.1019C40.4379 0.0411987 42.2279 2.47417 42.2279 5.31952ZM38.6885 5.31952C38.6885 3.99994 37.8749 3.05149 36.6137 3.05149H33.6846V7.58755H36.6137C37.8749 7.54631 38.6885 6.59786 38.6885 5.31952Z" fill="#1825AA"/>
<path d="M43.2464 9.97933C43.2464 6.5979 45.5246 3.95874 48.6979 3.95874C50.2031 3.95874 51.5457 4.53606 52.3593 5.85564V5.27832C52.3593 4.57729 52.7255 4.20616 53.4171 4.20616H54.7189C55.4105 4.20616 55.7767 4.57729 55.7767 5.27832V14.6391C55.7767 15.3401 55.4105 15.7113 54.7189 15.7113H53.4171C52.7255 15.7113 52.3593 15.3401 52.3593 14.6391V14.103C51.5457 15.3814 50.2031 15.9587 48.6979 15.9587C45.5246 15.9587 43.2464 13.3608 43.2464 9.97933ZM52.4407 9.97933C52.4407 8.12367 51.3016 6.76285 49.5522 6.76285C47.7622 6.76285 46.7044 8.20614 46.7044 9.97933C46.7044 11.7525 47.7622 13.1958 49.5522 13.1958C51.2609 13.1958 52.4407 11.7937 52.4407 9.97933Z" fill="#1825AA"/>
<path d="M58.5434 14.6391V5.27832C58.5434 4.57729 58.9096 4.20616 59.6012 4.20616H60.8217C61.5133 4.20616 61.8794 4.57729 61.8794 5.27832V6.72161C62.2456 4.61853 63.8322 3.95874 64.8086 3.95874L65.1747 3.99998C65.7036 4.04121 65.8256 4.45358 65.8256 4.90719V6.47419C65.8256 7.09274 65.5002 7.3814 65.0527 7.29893C64.8492 7.25769 64.6865 7.25769 64.4831 7.25769C63.1406 7.25769 61.9201 8.12367 61.9201 11.0102V14.6391C61.9201 15.3401 61.554 15.7113 60.8623 15.7113H59.5605C58.9096 15.7113 58.5434 15.3401 58.5434 14.6391Z" fill="#1825AA"/>
<path d="M68.1841 11.8762V6.76286H67.045C66.6788 6.76286 66.4754 6.55667 66.4754 6.18554V4.74225C66.4754 4.37112 66.6788 4.16493 67.045 4.16493H68.4282L68.7943 1.81443C68.8757 1.36082 69.2011 1.1134 69.6487 1.1134H70.7471C71.276 1.1134 71.5201 1.40206 71.5201 1.8969V4.16493H74.0831C74.4492 4.16493 74.6526 4.37112 74.6526 4.74225V6.18554C74.6526 6.55667 74.4492 6.76286 74.0831 6.76286H71.5201V11.9999C71.5201 12.8659 71.9269 13.1958 72.4558 13.1958C73.0253 13.1958 73.3915 12.7422 73.3915 12.1237C73.3915 11.9999 73.3915 11.8762 73.3508 11.7113C73.3101 11.2989 73.4321 11.0927 73.7983 11.0927H75.1408C75.4256 11.0927 75.6697 11.2164 75.7511 11.5463C75.8324 11.8762 75.8731 12.2474 75.8731 12.4123C75.8731 14.8865 74.1238 15.9174 72.0489 15.9174C70.2589 15.9587 68.1841 15.0927 68.1841 11.8762Z" fill="#1825AA"/>
<path d="M77.5823 14.6391V5.2783C77.5823 4.57727 77.9485 4.20614 78.6401 4.20614H79.9419C80.6335 4.20614 80.9997 4.57727 80.9997 5.2783V6.02056C81.5692 4.70098 82.749 3.91748 84.4577 3.91748C87.5089 3.91748 88.6073 6.35046 88.6073 9.03086V14.5978C88.6073 15.2989 88.2005 15.67 87.5089 15.67H86.2477C85.5561 15.67 85.19 15.2989 85.19 14.5978V9.31951C85.19 7.71127 84.5797 6.76283 83.3999 6.76283C82.2201 6.76283 80.9997 7.67004 80.9997 9.81436V14.5978C80.9997 15.2989 80.6335 15.67 79.9419 15.67H78.6401C77.9485 15.7112 77.5823 15.3401 77.5823 14.6391Z" fill="#1825AA"/>
<path d="M90.4792 10.0206C90.4792 6.76285 92.8795 3.95874 96.7037 3.95874C99.9176 3.95874 102.603 5.93811 102.725 9.60819C102.765 10.268 102.318 10.5566 101.626 10.5566H93.6932C93.6525 11.9175 94.995 13.237 97.1919 13.237C98.0056 13.237 98.8599 13.0309 99.7142 12.536C100.324 12.2061 100.813 12.2474 101.219 12.7422L101.464 13.0721C101.911 13.6082 101.87 14.2267 101.26 14.6803C99.9583 15.6288 98.4124 15.9999 96.9885 15.9999C92.9609 15.9587 90.4792 13.3195 90.4792 10.0206ZM99.5515 8.61851C99.226 7.05151 97.9242 6.5979 96.7444 6.5979C95.5646 6.5979 94.1814 7.13398 93.8152 8.61851H99.5515Z" fill="#1825AA"/>
<path d="M104.718 14.6391V5.27832C104.718 4.57729 105.084 4.20616 105.776 4.20616H106.996C107.688 4.20616 108.054 4.57729 108.054 5.27832V6.72161C108.42 4.61853 110.007 3.95874 110.983 3.95874L111.349 3.99998C111.878 4.04121 112 4.45358 112 4.90719V6.47419C112 7.09274 111.675 7.3814 111.227 7.29893C111.024 7.25769 110.861 7.25769 110.658 7.25769C109.315 7.25769 108.095 8.12367 108.095 11.0102V14.6391C108.095 15.3401 107.728 15.7113 107.037 15.7113H105.776C105.084 15.7113 104.718 15.3401 104.718 14.6391Z" fill="#1825AA"/>
<path d="M13.2219 7.62885C12.4896 7.62885 11.8794 7.91751 11.3912 8.41235V4.45361H7.48562C7.97381 4.90722 8.25859 5.56701 8.25859 6.30927C8.25859 7.7938 7.03811 8.98967 5.57353 8.86596C4.27169 8.78349 3.21394 7.71133 3.17325 6.39175C3.13257 5.60825 3.45803 4.94846 3.94622 4.45361H0.366145C0.162731 4.45361 0 4.61856 0 4.82475V15.6288C0 15.835 0.162731 15.9999 0.366145 15.9999H11.3912V12.0412C11.8387 12.536 12.4896 12.8247 13.2219 12.8247C14.6458 12.8247 15.7849 11.6701 15.7849 10.2268C15.7442 8.78349 14.6051 7.62885 13.2219 7.62885Z" fill="#1825AA"/>
<path d="M22.4169 4.41235H18.8775C19.3657 3.95874 19.6505 3.29895 19.6505 2.55669C19.6505 1.15463 18.5114 0 17.0875 0C15.6636 0 14.5245 1.15463 14.5245 2.59792C14.5245 3.34019 14.8093 3.95874 15.2974 4.45358H11.3919V8.41233C11.8394 7.91748 12.4903 7.62883 13.2226 7.62883C14.6872 7.62883 15.867 8.86593 15.745 10.3505C15.6636 11.67 14.6058 12.7422 13.304 12.7834C12.531 12.8247 11.8801 12.4948 11.3919 11.9999V15.9587H22.4169C22.6203 15.9587 22.7831 15.7937 22.7831 15.5875V4.78348C22.7831 4.5773 22.6203 4.41235 22.4169 4.41235Z" fill="#FF8B00"/>
</svg>
