<svg width="14" height="13" viewBox="0 0 14 13" fill="none" xmlns="http://www.w3.org/2000/svg">
<path d="M12.9998 6.5C12.9998 9.53754 10.5369 12 7.49984 12C5.47698 12 3.70795 10.9073 2.75289 9.27981C2.65376 9.11089 2.47619 9 2.28033 9C1.90815 9 1.65835 9.37858 1.84196 9.7023C2.95886 11.6714 5.07415 13 7.49984 13C11.0897 13 13.9998 10.0898 13.9998 6.5C13.9998 2.91016 11.0897 0 7.49984 0C5.07415 0 2.95886 1.32858 1.84196 3.2977C1.65835 3.62142 1.90815 4 2.28033 4C2.47619 4 2.65376 3.88911 2.75289 3.72019C3.70795 2.0927 5.47698 1 7.49984 1C10.5369 1 12.9998 3.46246 12.9998 6.5Z" fill="white"/>
<path d="M0.247931 1.59466C0.179947 1.32701 0.341803 1.05493 0.609446 0.986951C0.87709 0.918968 1.14917 1.08082 1.21715 1.34847L1.83263 3.77152C1.9686 4.30681 1.64488 4.85097 1.1096 4.98693L0.247931 1.59466Z" fill="white"/>
<path d="M4.25568 3.15604C4.52332 3.08806 4.7954 3.24992 4.86339 3.51756C4.93137 3.7852 4.76952 4.05728 4.50187 4.12527L1.1096 4.98693C0.97363 4.45165 1.29734 3.90749 1.83263 3.77152L4.25568 3.15604Z" fill="white"/>
</svg>
