<svg width="24" height="24" viewBox="0 0 24 24" fill="none" xmlns="http://www.w3.org/2000/svg">
<path fill-rule="evenodd" clip-rule="evenodd" d="M15.4875 18.1543C13.3314 19.3778 10.6694 19.3779 8.51337 18.1545L9.56128 17.1066C11.0996 17.8415 12.9014 17.8416 14.4397 17.1066L15.4875 18.1543ZM18.1539 15.4876C19.3771 13.3317 19.377 10.67 18.1537 8.51413L17.1061 9.56178C17.841 11.1 17.8411 12.9016 17.1063 14.4399L18.1539 15.4876ZM15.4871 5.84757C13.3312 4.6244 10.6696 4.62436 8.51378 5.84744L9.56174 6.89541C11.0998 6.16071 12.9012 6.16068 14.4393 6.89533L15.4871 5.84757ZM5.8468 15.4878C4.62352 13.3318 4.6236 10.6699 5.84703 8.51391L6.89506 9.56193C6.16021 11.1001 6.16014 12.9016 6.89484 14.4398L5.8468 15.4878ZM18.0002 18.0009C14.6865 21.3146 9.31407 21.3146 6.00044 18.0009C2.68681 14.6873 2.68681 9.31484 6.00044 6.00121C9.31407 2.68757 14.6865 2.68757 18.0002 6.00121C21.3138 9.31484 21.3138 14.6873 18.0002 18.0009ZM15.0005 15.001C13.3437 16.6578 10.6575 16.6578 9.00066 15.001C7.34384 13.3442 7.34384 10.658 9.00066 9.00116C10.6575 7.34434 13.3437 7.34434 15.0005 9.00116C16.6573 10.658 16.6573 13.3442 15.0005 15.001Z" fill="#3E3934"/>
</svg>
