<svg width="20" height="18" viewBox="0 0 20 18" fill="none" xmlns="http://www.w3.org/2000/svg">
<path fill-rule="evenodd" clip-rule="evenodd" d="M17.7949 3.93966V7.72172C18.4896 8.26881 19.0486 8.96062 19.4304 9.74586C19.8121 10.5311 20.0068 11.3897 20.0001 12.2579C19.9934 13.1261 19.7853 13.9817 19.3915 14.7613C18.9976 15.5408 18.4279 16.2244 17.7247 16.7613C17.0215 17.2982 16.2028 17.6746 15.3293 17.8626C14.4558 18.0507 13.5499 18.0456 12.6786 17.8476C11.8074 17.6497 10.9933 17.2641 10.2966 16.7193C9.59993 16.1745 9.03853 15.4845 8.65403 14.7005H2.66841C1.96081 14.7005 1.2822 14.4278 0.781847 13.9423C0.281499 13.4567 0.000406056 12.7982 0.000406056 12.1116V3.93966C-0.00265767 3.59778 0.0640907 3.25871 0.196798 2.94201C0.329506 2.6253 0.525544 2.33724 0.773597 2.09444C1.02165 1.85165 1.3168 1.65894 1.64202 1.52743C1.96724 1.39592 2.31608 1.32821 2.66841 1.32823H3.87482V0.787931C3.87482 0.578959 3.96037 0.378545 4.11265 0.23078C4.26493 0.0830139 4.47146 0 4.68682 0C4.90217 0 5.10871 0.0830139 5.26099 0.23078C5.41327 0.378545 5.49882 0.578959 5.49882 0.787931V1.32823H12.2964V0.787931C12.2964 0.578959 12.382 0.378545 12.5343 0.23078C12.6865 0.0830139 12.8931 0 13.1084 0C13.3238 0 13.5303 0.0830139 13.6826 0.23078C13.8349 0.378545 13.9204 0.578959 13.9204 0.787931V1.35074H15.1268C15.8344 1.35074 16.5131 1.6235 17.0134 2.10902C17.5138 2.59453 17.7949 3.25303 17.7949 3.93966ZM1.93019 12.8505C2.12598 13.0405 2.39153 13.1472 2.66841 13.1472L8.16683 13.1247C8.00572 12.1243 8.11798 11.1004 8.49238 10.1554C8.86679 9.21028 9.49023 8.37709 10.3004 7.73904C11.1106 7.10099 12.0792 6.68042 13.1093 6.51936C14.1395 6.35831 15.1951 6.4624 16.1708 6.82123V3.93966C16.1708 3.67098 16.0609 3.4133 15.8651 3.22332C15.6693 3.03333 15.4037 2.9266 15.1268 2.9266H13.9204V3.24177C13.9204 3.45075 13.8349 3.65116 13.6826 3.79893C13.5303 3.94669 13.3238 4.0297 13.1084 4.0297C12.8931 4.0297 12.6865 3.94669 12.5343 3.79893C12.382 3.65116 12.2964 3.45075 12.2964 3.24177V2.9266H5.49882V3.24177C5.49882 3.45075 5.41327 3.65116 5.26099 3.79893C5.10871 3.94669 4.90217 4.0297 4.68682 4.0297C4.47146 4.0297 4.26493 3.94669 4.11265 3.79893C3.96037 3.65116 3.87482 3.45075 3.87482 3.24177V2.9266H2.66841C2.39153 2.9266 2.12598 3.03333 1.93019 3.22332C1.7344 3.4133 1.62441 3.67098 1.62441 3.93966V12.1341C1.62441 12.4028 1.7344 12.6605 1.93019 12.8505ZM11.6581 15.7602C12.368 16.2244 13.2036 16.4746 14.0596 16.479C14.6324 16.479 15.1996 16.3695 15.7288 16.1569C16.2579 15.9442 16.7388 15.6324 17.1438 15.2394C17.5488 14.8464 17.8701 14.3798 18.0892 13.8663C18.3084 13.3528 18.4213 12.8025 18.4213 12.2467C18.4167 11.416 18.1589 10.6052 17.6804 9.91637C17.202 9.22754 16.5242 8.69145 15.7324 8.37562C14.9406 8.05978 14.0702 7.97831 13.2308 8.14146C12.3914 8.30462 11.6205 8.7051 11.0152 9.29249C10.4098 9.87988 9.99713 10.6279 9.82899 11.4424C9.66086 12.257 9.74482 13.1015 10.0703 13.8699C10.3958 14.6382 10.9482 15.2959 11.6581 15.7602ZM14.6166 11.864H15.9622H15.9854C16.2007 11.864 16.4073 11.9471 16.5595 12.0948C16.7118 12.2426 16.7974 12.443 16.7974 12.652C16.7974 12.8609 16.7118 13.0614 16.5595 13.2091C16.4073 13.3569 16.2007 13.4399 15.9854 13.4399H13.8046C13.5892 13.4399 13.3827 13.3569 13.2304 13.2091C13.0781 13.0614 12.9926 12.8609 12.9926 12.652V9.88295C12.9926 9.67398 13.0781 9.47357 13.2304 9.3258C13.3827 9.17804 13.5892 9.09502 13.8046 9.09502C14.0199 9.09502 14.2265 9.17804 14.3787 9.3258C14.531 9.47357 14.6166 9.67398 14.6166 9.88295V11.864Z" fill="#FF8300"/>
</svg>
