<svg width="17" height="18" viewBox="0 0 17 18" fill="none" xmlns="http://www.w3.org/2000/svg">
<path d="M1.74174 16.3636H15.2595L14.9371 14.0939C14.7343 12.6654 13.288 11.4545 11.785 11.4545H5.21615C3.71442 11.4545 2.26682 12.6661 2.06406 14.0939L1.74174 16.3636ZM0.372578 13.8731C0.690601 11.6336 2.86139 9.81818 5.21615 9.81818H11.785C14.1421 9.81818 16.3106 11.634 16.6286 13.8731L16.9851 16.3835C17.1119 17.2763 16.4433 18 15.5118 18H1.48935C0.54891 18 -0.110357 17.2739 0.0160835 16.3835L0.372578 13.8731ZM8.50056 8.18182C4.92423 8.18182 4.23285 5.55647 4.23285 3.57955C4.23285 1.60262 6.14357 0 8.50056 0C10.8576 0 12.7683 1.60262 12.7683 3.57955C12.7683 5.55647 12.0769 8.18182 8.50056 8.18182ZM8.50056 6.54545C10.392 6.54545 11.0612 5.5702 11.0612 3.57955C11.0612 2.55857 9.96169 1.63636 8.50056 1.63636C7.03943 1.63636 5.93994 2.55857 5.93994 3.57955C5.93994 5.5702 6.60909 6.54545 8.50056 6.54545Z" fill="#3E3934"/>
</svg>
